<svg version="1.1" xmlns="http://www.w3.org/2000/svg" xmlns:xlink="http://www.w3.org/1999/xlink" width="145" height="137" viewBox="0,0,145,137"><g transform="translate(-167.5,-111.5)"><g data-paper-data="{&quot;isPaintingLayer&quot;:true}" fill-rule="nonzero" stroke="none" stroke-linecap="butt" stroke-linejoin="miter" stroke-miterlimit="10" stroke-dasharray="" stroke-dashoffset="0" style="mix-blend-mode: normal"><path d="M312.5,180c0,37.83151 -32.45936,68.5 -72.5,68.5c-40.04064,0 -72.5,-30.66849 -72.5,-68.5c0,-37.83151 32.45936,-68.5 72.5,-68.5c40.04064,0 72.5,30.66849 72.5,68.5z" fill="#5a5a5a" stroke-width="0"/><path d="M188.75991,183.46184c2.49469,-0.16292 2.6576,2.33177 2.6576,2.33177l0.15815,2.79111c0.46709,1.32349 0.70918,2.74948 1.40126,3.97047c0.67001,1.18205 1.57379,2.25552 2.61949,3.12308c6.42231,5.3282 10.73366,-2.41981 11.66568,-8.14475c0.50994,-3.13229 -0.248,-6.34227 -0.34742,-9.51424c-0.19745,-6.29959 -0.94471,-12.47703 -2.26897,-18.6411c0,0 -0.52382,-2.44451 1.92068,-2.96833c2.44451,-0.52382 2.96833,1.92068 2.96833,1.92068c1.74096,8.14433 2.30958,16.22087 2.53555,24.52816c0.09764,3.5898 -0.46455,7.27303 -1.73112,10.63338c-0.59462,1.57758 -0.77779,3.40977 -1.85812,4.70407c-1.36402,1.63418 -3.20646,2.93976 -5.18253,3.73108c-8.86171,3.54869 -14.23574,-5.71104 -16.61906,-12.32911l-0.2513,-3.47868c0,0 -0.16292,-2.49469 2.33177,-2.6576z" fill="#000000" stroke-width="0.5"/><path d="M243.72283,165.28913c2.5,0 2.5,2.5 2.5,2.5l-0.00053,3.62536c-0.22318,5.43435 -0.27578,9.77695 -2.17928,14.94599c-0.69307,1.88208 -0.8148,4.14274 -2.18722,5.60528c-1.37242,1.46255 -3.58541,1.81285 -5.45503,2.53885c-6.55985,2.54728 -7.208,4.04186 -10.6388,-3.73032c-0.75037,-1.69989 -0.45552,-3.68832 -0.66551,-5.53456c-0.93016,-8.17812 0.04465,-16.37914 0.04376,-24.59844c0,0 0,-2.5 2.5,-2.5c2.5,0 2.5,2.5 2.5,2.5c-0.00086,8.04787 -0.88602,16.05301 -0.07273,24.06103c0.14908,1.46794 0.10395,2.96397 0.40931,4.40752c0.19754,0.93383 0.14747,2.46468 1.08371,2.6505c1.12483,0.22325 1.86106,-1.36182 2.89342,-1.86114c1.19811,-0.57949 2.84508,-0.38433 3.75579,-1.35484c0.91071,-0.97051 0.70164,-2.56871 1.11354,-3.83426c1.54065,-4.73357 1.69488,-8.43009 1.90011,-13.39851l-0.00053,-3.52246c0,0 0,-2.5 2.5,-2.5z" fill="#000000" stroke-width="0.5"/><path d="M286.361,196.46626c-2.17061,1.24035 -3.41096,-0.93026 -3.41096,-0.93026l-1.36507,-2.45684c-1.41157,-3.81123 -2.78003,-7.62246 -4.09874,-11.45865c-1.26777,3.18255 -2.52883,6.39648 -4.05049,9.41884c-0.86215,1.71244 -1.4332,3.72202 -2.88228,4.97738c-1.54592,1.33926 -3.82481,3.34454 -5.64353,2.40871c-2.11129,-1.08637 -1.85653,-4.37808 -2.57931,-6.63979c-0.77557,-2.4269 -1.58727,-4.87191 -1.87614,-7.31651c-1.6436,3.70342 -3.44074,7.30004 -5.26299,10.94454c0,0 -1.11803,2.23607 -3.3541,1.11803c-2.23607,-1.11803 -1.11803,-3.3541 -1.11803,-3.3541c2.22181,-4.44362 4.41119,-8.80939 6.30947,-13.40217l1.63561,-3.95364c0.36186,-0.93491 1.26965,-1.5979 2.33229,-1.5979c1.16799,0 2.14891,0.80097 2.42343,1.88359l1.32358,4.76489l-0.20899,0.05805c1.61067,3.67134 2.72569,7.51388 2.43504,11.54551c0.55707,-1.26246 1.38418,-2.39314 1.9775,-3.63976c2.02684,-4.25863 3.69375,-8.74152 5.53177,-13.08632l1.13033,-1.38939c0,0 1.76777,-1.76777 3.53553,0c0.07562,0.07562 0.14476,0.15123 0.20786,0.22671c1.1622,0.3684 1.58739,1.64397 1.58739,1.64397c1.69205,5.07614 3.47502,10.09342 5.33353,15.11141l1.01754,1.71272c0,0 1.24035,2.17061 -0.93026,3.41096z" fill="#000000" stroke-width="0.5"/><path d="M299.76996,183.44962c0.45918,4.83376 0.91881,9.34979 0.65337,14.26079c0,0 -0.13868,2.49615 -2.63483,2.35748c-2.49615,-0.13868 -2.35748,-2.63483 -2.35748,-2.63483c0.37833,-6.61619 -0.74234,-12.97692 -1.15754,-19.57525c-0.28153,-4.47396 -1.29555,-6.53213 3.67889,-9.3018c5.28215,-2.941 16.83575,-0.18677 12.58639,8.18659c-0.99408,1.95884 -7.15875,5.13468 -8.94541,6.15051zM299.34928,178.37827l0.27259,-0.08008c1.26083,-0.72483 2.53967,-1.41918 3.78248,-2.17449c0.93856,-0.57041 2.00029,-1.00703 2.75907,-1.80109c0.30654,-0.3208 0.35108,-0.89038 0.21696,-1.31333c-0.27951,-0.88143 -1.82917,-0.36688 -2.7534,-0.33788c-1.33254,0.04182 -4.32036,-0.29379 -4.81953,1.87171c-0.21954,0.95242 0.34183,1.92612 0.44861,2.89767c0.03431,0.31219 0.06499,0.62472 0.09322,0.93749z" fill="#000000" stroke-width="0.5"/></g></g></svg>