<svg version="1.1" xmlns="http://www.w3.org/2000/svg" xmlns:xlink="http://www.w3.org/1999/xlink" width="165.90291" height="192.31068" viewBox="0,0,165.90291,192.31068"><g transform="translate(-160.43204,-44.04369)"><g stroke="none" stroke-miterlimit="10"><path d="M195.84951,76.82038c0,-18.10208 19.12571,-32.77669 42.71845,-32.77669c23.59276,0 42.71845,14.67463 42.71845,32.77669c0,18.10208 -19.12571,32.77671 -42.71845,32.77671c-23.59276,0 -42.71845,-14.67463 -42.71845,-32.77671zM238.36231,102.26558c29.37284,0.11155 32.40452,-21.08392 32.40452,-21.08392h-62.9944c0,0 2.25538,20.9763 30.58988,21.08392zM254.1497,71.04417c3.19083,0 5.77749,-1.98469 5.77749,-4.43291c0,-2.44823 -2.58668,-4.43291 -5.77749,-4.43291c-3.19083,0 -5.77749,1.98469 -5.77749,4.43291c0,2.44823 2.58668,4.43291 5.77749,4.43291zM222.98624,71.04417c3.19083,0 5.77749,-1.98469 5.77749,-4.43291c0,-2.44823 -2.58668,-4.43291 -5.77749,-4.43291c-3.19083,0 -5.77749,1.98469 -5.77749,4.43291c0,2.44823 2.58668,4.43291 5.77749,4.43291z" fill="#9966ff" stroke-width="0" stroke-linecap="butt"/><path d="M178.14078,166.76214c0,38.43473 24.61999,69.59223 54.99029,69.59223c30.3703,0 54.99029,-31.1575 54.99029,-69.59223c0,-38.43473 -24.61999,-69.59223 -54.99029,-69.59223c-30.3703,0 -54.99029,31.1575 -54.99029,69.59223z" fill="#9966ff" stroke-width="0" stroke-linecap="butt"/><path d="M209.20874,137.55825l-47.2233,25.16505l-1.5534,42.25243" fill="#9966ff" stroke-width="0" stroke-linecap="round"/><path d="M274.45146,133.51942l25.47573,27.65049l26.40777,-19.57282" fill="#9966ff" stroke-width="0" stroke-linecap="round"/><text transform="translate(203.30583,152.47087) scale(0.5,0.5)" font-size="40" xml:space="preserve" fill="#ffffff" stroke-width="1" stroke-linecap="butt" font-family="&quot;BALD&quot;, Sans Serif" font-weight="normal" text-anchor="start"><tspan x="0" dy="0">BULY</tspan></text><text transform="translate(120.66505,75.42233) scale(0.5,0.5)" font-size="40" xml:space="preserve" fill="#ffffff" stroke-width="1" stroke-linecap="butt" font-family="&quot;BALD&quot;, Sans Serif" font-weight="normal" text-anchor="start"><tspan x="0" dy="0"> </tspan></text></g></g></svg>