<svg version="1.1" xmlns="http://www.w3.org/2000/svg" xmlns:xlink="http://www.w3.org/1999/xlink" width="145" height="137" viewBox="0,0,145,137"><g transform="translate(-167.5,-111.5)"><g data-paper-data="{&quot;isPaintingLayer&quot;:true}" fill-rule="nonzero" stroke="none" stroke-linecap="butt" stroke-linejoin="miter" stroke-miterlimit="10" stroke-dasharray="" stroke-dashoffset="0" style="mix-blend-mode: normal"><path d="M312.5,180c0,37.83151 -32.45936,68.5 -72.5,68.5c-40.04064,0 -72.5,-30.66849 -72.5,-68.5c0,-37.83151 32.45936,-68.5 72.5,-68.5c40.04064,0 72.5,30.66849 72.5,68.5z" fill="#ff0b0b" stroke-width="0"/><path d="M222.5,208.5c-2.24413,0 -2.47381,-2.01445 -2.49732,-2.4268c-0.59976,-0.54251 -1.21081,-1.0763 -1.62931,-1.75888c-0.50982,-0.83153 -0.25797,-2.02955 -0.86014,-2.79684c-0.61217,-0.78004 -1.74646,-0.95245 -2.54434,-1.54119c-3.99323,-2.94656 -7.63192,-6.50932 -11.6648,-9.39145c-2.72295,-1.94597 -7.02336,-3.42257 -9.10388,-6.4391c0.13862,0.63491 0.26783,1.27533 0.38336,1.92367c1.17466,6.59195 3.07293,12.92719 4.37216,19.46224c0.58706,2.95289 0.44797,6.01654 0.99551,8.97702c0.78944,4.26842 2.55192,8.59628 3.92047,12.70077c0,0 0.79057,2.37171 -1.58114,3.16228c-2.37171,0.79057 -3.16228,-1.58114 -3.16228,-1.58114c-1.43411,-4.30353 -3.24548,-8.82569 -4.07953,-13.29923c-0.55466,-2.97498 -0.41232,-6.05525 -1.00449,-9.02298c-0.64699,-3.24241 -1.89018,-6.3422 -2.61468,-9.56818c-0.97972,-4.36242 -1.19504,-8.96751 -2.35269,-13.28489c-1.26298,-4.71023 -2.96286,-9.4561 -3.06967,-14.42534c-0.04062,-1.88982 -0.58204,-4.07771 0.46467,-5.65171c2.78832,-4.19299 11.04743,-2.10013 13.23229,1.28213c0.75786,1.17321 0.19721,2.78643 0.29581,4.17964c0,2.74296 0.80452,8.36291 -0.1903,10.95671c-0.26644,0.6947 -1.64949,0.56584 -1.82187,1.28964c-0.12477,0.52389 0.83588,0.68119 1.27993,0.98589c0.83999,0.57638 1.70252,1.11969 2.56911,1.65524c1.46801,0.90723 3.02945,1.66991 4.43396,2.67264c4.06763,2.90403 7.8134,6.38304 11.76027,9.4636c1.11444,0.86983 2.56475,1.36114 3.45566,2.45881c1.15619,1.4245 1.4458,3.49146 2.781,4.74972l0.73223,2.76777c0,0 0,2.5 -2.5,2.5zM193.20738,180.06157c0.46926,-0.71157 1.63627,-1.18929 1.98292,-2.01828c0.2639,-0.63109 -0.16451,-1.35973 -0.1903,-2.04329c-0.08798,-2.33167 0,-4.66667 0,-7c0.0986,-0.60679 0.55713,-1.26392 0.29581,-1.82036c-0.53956,-1.1489 -2.63416,-0.72811 -3.39536,-0.71193c-0.45735,0.00972 -1.20706,-0.43249 -1.37235,-0.00594c-0.28832,0.74403 0.33049,1.56171 0.46467,2.34829c0.23401,1.37177 0.4291,2.7499 0.63967,4.12547c0.3759,2.45557 0.97635,4.78859 1.57494,7.12604z" fill="#000000" stroke-width="0.5"/><path d="M250.5,151.5c2.5,0 2.5,2.5 2.5,2.5c0,6 0,13 0,19c0,0.10305 0.01867,9.09024 -0.05039,9.49943c-0.44137,2.61521 -2.30016,4.80126 -3.08055,7.33604c-0.48176,1.5648 -1.05482,8.0301 -2.90728,9.19264c-5.12974,3.21924 -9.27046,-3.20731 -11.67404,-6.34906c-4.89565,-6.39916 -8.07406,-13.32785 -11.0987,-20.72539c-2.21793,-5.42453 -4.16665,-9.98 -4.18904,-15.95365c0,0 0,-2.5 2.5,-2.5c2.5,0 2.5,2.5 2.5,2.5c-0.02335,5.28451 1.85159,9.2548 3.81096,14.04635c1.90755,4.66481 3.4765,8.85369 6.20036,13.10806c0.98366,1.53638 3.43143,5.41918 4.24795,6.48705c0.97099,1.2699 2.13265,2.38276 3.15822,3.609c0.50562,0.60455 1.30572,2.44386 1.62073,1.72144c0.89223,-2.04614 0.39231,-4.48126 1.05388,-6.61317c0.73788,-2.3778 2.57379,-4.39836 2.95829,-6.85815c0.43761,-2.79958 -0.05039,-5.667 -0.05039,-8.50057c0,-6 0,-12 0,-18v-1c0,0 0,-2.5 2.5,-2.5z" fill="#000000" stroke-width="0.5"/><path d="M302.10634,153.57464c2.42536,0.60634 1.81902,3.0317 1.81902,3.0317l-0.99196,3.96689c-1.74204,7.75757 -5.82915,14.98799 -9.06959,22.24067c-0.89882,1.86513 -0.76092,4.86037 -2.69647,5.59539c-2.43483,0.92462 -6.29105,-4.88405 -6.95362,-6.3979c-2.33881,-5.34378 -2.1592,-11.70621 -4.06963,-17.17494c-0.48804,-1.39703 -1.59293,-2.54319 -1.98879,-3.96908c-0.00602,-0.0217 -0.01167,-0.04344 -0.01695,-0.06522c-0.02618,0.6282 -0.07887,1.25206 -0.22779,1.86062c-0.03425,0.13997 -3.63174,9.35841 -3.65321,9.4068c-2.82379,6.3648 -5.84374,13.53281 -9.67721,19.31718c0,0 -1.38675,2.08013 -3.46688,0.69338c-2.08013,-1.38675 -0.69338,-3.46688 -0.69338,-3.46688c2.07105,-3.0858 3.22976,-6.3324 4.81218,-9.66512c2.14359,-4.5146 4.40347,-8.79728 6.2256,-13.45885c0.54138,-1.38502 1.21116,-2.72572 1.63179,-4.15205c0.56941,-1.93085 -0.10109,-4.47508 1.32992,-5.89093c1.53815,-1.52185 4.29861,-2.50662 6.28095,-1.63929c1.75324,0.7671 1.3676,3.57665 2.14439,5.32563c2.49639,5.62076 3.61534,11.28094 5.08064,17.26103c0.29325,1.1968 0.38715,2.45748 0.86093,3.59496c0.1232,0.2958 0.31331,0.55752 0.52282,0.80878c3.10558,-6.94251 7.1437,-13.95075 8.7575,-21.37063l1.00804,-4.03311c0,0 0.60634,-2.42536 3.0317,-1.81902zM278.1959,159.09581c0.04816,-0.30197 0.09426,-0.60405 0.10378,-0.90282c0.00533,-0.16739 -0.06053,0.32993 -0.07506,0.49677c-0.01175,0.13501 -0.02109,0.2704 -0.02872,0.40605z" fill="#000000" stroke-width="0.5"/></g></g></svg>