<svg version="1.1" xmlns="http://www.w3.org/2000/svg" xmlns:xlink="http://www.w3.org/1999/xlink" width="70.7571" height="90.69558" viewBox="0,0,70.7571,90.69558"><g transform="translate(-204.62145,-134.65221)"><g stroke="none" stroke-width="0" stroke-miterlimit="10"><path d="M275.37855,180c0,25.04489 -15.83951,45.34779 -35.37855,45.34779c-19.53903,0 -35.37855,-20.30289 -35.37855,-45.34779c0,-25.04489 15.83951,-45.34779 35.37855,-45.34779c19.53903,0 35.37855,20.30289 35.37855,45.34779z" fill="#00edff"/><path d="M240,152.5c15.18783,0 27.5,12.31217 27.5,27.5c0,15.18783 -12.31217,27.5 -27.5,27.5c-15.18783,0 -27.5,-12.31217 -27.5,-27.5c0,-15.18783 12.31217,-27.5 27.5,-27.5z" fill="#f1ffb3"/><path d="M259.1069,180c0,10.40407 -8.55445,18.83824 -19.1069,18.83824c-10.55245,0 -19.1069,-8.43417 -19.1069,-18.83824c0,-10.40407 8.55445,-18.83824 19.1069,-18.83824c10.55245,0 19.1069,8.43417 19.1069,18.83824z" fill="#36160c"/><path d="M264.02391,169.90435c0,1.96181 -1.50666,3.55217 -3.36522,3.55217c-1.85856,0 -3.36522,-1.59036 -3.36522,-3.55217c0,-1.96181 1.50666,-3.55217 3.36522,-3.55217c1.85856,0 3.36522,1.59036 3.36522,3.55217z" fill="#000000"/><path d="M264.53695,190.79566c0,1.96181 -1.50666,3.55218 -3.36522,3.55218c-1.85856,0 -3.36521,-1.59036 -3.36521,-3.55218c0,-1.96181 1.50665,-3.55218 3.36521,-3.55218c1.85856,0 3.36522,1.59036 3.36522,3.55218z" fill="#000000"/></g></g></svg>